<?xml version="1.0" standalone="no"?>
<!DOCTYPE svg PUBLIC "-//W3C//DTD SVG 20010904//EN"
 "http://www.w3.org/TR/2001/REC-SVG-20010904/DTD/svg10.dtd">
<svg version="1.0" xmlns="http://www.w3.org/2000/svg"
 width="512.000000pt" height="512.000000pt" viewBox="0 0 512.000000 512.000000"
 preserveAspectRatio="xMidYMid meet">

<g transform="translate(0.000000,512.000000) scale(0.100000,-0.100000)"
fill="#000000" stroke="none">
<path d="M2427 5104 c-131 -31 -285 -137 -408 -279 -68 -79 -178 -237 -233
-337 l-37 -67 71 24 c110 37 283 73 418 87 l122 12 31 54 c44 79 111 146 171
172 118 50 271 1 436 -140 87 -75 102 -94 84 -112 -8 -8 -33 8 -89 57 -175
154 -309 203 -417 154 l-26 -12 49 -51 c26 -29 59 -69 73 -91 25 -40 25 -40
130 -58 57 -10 142 -29 187 -43 46 -14 84 -24 84 -22 1 2 37 40 80 84 l78 81
-31 53 c-48 82 -110 159 -186 230 -193 182 -393 251 -587 204z"/>
<path d="M3763 4875 c-163 -37 -354 -151 -521 -310 -57 -54 -107 -106 -112
-115 -8 -16 3 -24 83 -63 115 -57 219 -126 320 -212 43 -37 80 -65 81 -63 1 1
14 35 29 73 60 157 165 293 264 341 115 57 239 27 367 -88 78 -69 177 -194
170 -213 -11 -27 -29 -15 -84 56 -67 87 -144 157 -213 195 -43 24 -64 29 -124
29 -39 0 -74 -3 -78 -7 -4 -4 7 -24 23 -45 61 -75 114 -209 142 -358 28 -147
23 -487 -11 -690 -10 -59 -9 -66 36 -195 108 -314 182 -691 216 -1101 14 -166
7 -174 90 99 177 583 258 1091 246 1530 -12 455 -111 729 -343 953 -140 134
-260 189 -424 195 -58 2 -119 -2 -157 -11z"/>
<path d="M2290 4493 c-472 -45 -828 -210 -1106 -513 -278 -303 -462 -762 -529
-1320 -21 -175 -32 -584 -17 -594 6 -4 44 0 84 8 488 101 1308 74 2095 -69
190 -35 425 -85 445 -96 49 -26 129 -405 159 -754 12 -146 13 -666 1 -822 -6
-86 -5 -103 7 -103 7 0 71 18 142 40 116 37 133 45 184 92 214 196 426 538
541 878 l29 85 -1 305 c-2 781 -131 1428 -386 1935 -278 554 -693 860 -1253
925 -83 9 -313 11 -395 3z m55 -265 c250 -49 502 -194 682 -394 328 -362 535
-945 642 -1814 39 -318 71 -777 71 -1032 0 -117 -2 -138 -15 -138 -9 0 -17 6
-20 12 -2 7 -9 141 -15 298 -31 825 -139 1507 -314 1985 -55 150 -187 408
-263 514 -256 357 -614 551 -1017 551 -152 0 -275 -21 -444 -76 -78 -26 -146
-44 -149 -40 -17 17 21 43 108 74 247 88 491 108 734 60z"/>
<path d="M1160 2084 c-249 -21 -512 -61 -529 -80 -5 -5 -51 -101 -102 -214
l-94 -205 0 -200 c0 -260 28 -418 106 -622 124 -318 358 -547 668 -652 398
-136 977 -145 1626 -26 144 27 503 111 523 124 15 9 32 285 32 536 0 309 -23
584 -66 810 -22 116 -74 303 -88 314 -27 22 -568 122 -871 160 -329 42 -479
52 -820 56 -187 1 -360 1 -385 -1z m540 -434 c358 -20 733 -65 1015 -121 l150
-30 76 82 c54 58 81 80 93 76 9 -4 16 -10 16 -15 0 -5 -36 -48 -80 -96 l-80
-88 0 -186 c0 -268 31 -450 106 -632 43 -102 45 -115 20 -115 -37 0 -119 228
-153 425 -12 66 -17 157 -17 302 l-1 207 -156 30 c-473 92 -1139 142 -1644
123 -126 -5 -236 -7 -243 -4 -7 2 -12 12 -10 21 3 13 21 17 93 22 158 9 634 9
815 -1z"/>
</g>
</svg>
