<?xml version="1.0" standalone="no"?>
<!DOCTYPE svg PUBLIC "-//W3C//DTD SVG 20010904//EN"
 "http://www.w3.org/TR/2001/REC-SVG-20010904/DTD/svg10.dtd">
<svg version="1.0" xmlns="http://www.w3.org/2000/svg" viewBox="0 0 512.000000 512.000000"
 preserveAspectRatio="xMidYMid meet">

<g transform="translate(0.000000,512.000000) scale(0.100000,-0.100000)"
fill="#fff" stroke="none">
<path d="M2290 5029 c-249 -32 -600 -148 -897 -298 -501 -251 -912 -713 -1108
-1246 -105 -283 -120 -489 -45 -610 17 -28 20 -50 20 -161 0 -255 30 -736 51
-833 10 -43 9 -45 -23 -70 -54 -42 -95 -91 -125 -150 -25 -50 -28 -66 -28
-156 0 -95 2 -103 34 -163 90 -166 280 -249 546 -239 l131 4 21 -126 c79 -459
279 -736 566 -781 73 -11 109 -8 198 16 l55 16 60 -59 c166 -167 399 -101 470
132 23 76 34 317 34 790 1 533 -17 746 -86 1018 -60 238 -117 360 -206 442
-110 102 -223 108 -319 18 -26 -24 -56 -65 -67 -92 l-21 -48 -88 -1 c-148 -1
-260 -48 -371 -155 -90 -87 -171 -221 -201 -333 l-11 -42 -48 5 c-26 3 -51 10
-57 15 -17 15 -9 348 14 573 11 116 21 249 21 296 0 78 2 88 25 109 39 37 115
153 200 305 128 230 227 371 366 519 54 58 110 107 277 242 65 53 244 152 348
193 238 95 469 128 694 100 94 -11 244 -45 275 -62 11 -6 23 -10 27 -9 15 4
204 -84 286 -133 135 -80 250 -171 377 -299 176 -177 265 -303 454 -641 34
-60 86 -140 116 -178 54 -66 55 -68 55 -135 0 -37 10 -159 21 -272 11 -113 23
-293 26 -400 7 -221 9 -214 -69 -222 l-48 -6 -11 42 c-23 89 -99 224 -170 300
-122 131 -244 188 -400 188 l-86 0 -23 49 c-49 104 -157 171 -248 154 -168
-31 -287 -227 -366 -602 -62 -294 -78 -585 -65 -1204 9 -426 16 -505 58 -588
69 -135 200 -191 337 -144 34 11 67 35 108 76 l59 59 51 -15 c78 -24 138 -29
202 -18 272 44 464 285 547 687 14 66 28 142 32 169 l6 50 162 0 c149 1 168 3
244 28 209 70 320 207 312 385 -5 104 -46 189 -128 264 l-58 54 13 75 c19 114
34 357 41 654 l5 270 32 65 c29 61 31 71 31 180 -1 133 -26 243 -102 440 -202
527 -641 1003 -1140 1237 -294 137 -584 231 -828 268 -109 16 -450 19 -565 4z
m576 -84 c278 -42 710 -202 980 -365 317 -192 617 -515 809 -873 l48 -88 -34
-35 c-22 -23 -36 -31 -43 -24 -14 14 -46 12 -46 -3 0 -7 5 -18 12 -25 9 -9 8
-16 -5 -30 -20 -22 -22 -52 -4 -52 8 0 22 9 32 20 19 21 19 20 67 -27 45 -44
47 -48 31 -65 -9 -10 -21 -18 -28 -18 -6 0 -22 -11 -35 -25 l-24 -25 -23 22
c-18 17 -26 19 -35 10 -9 -9 -7 -17 10 -35 l22 -23 -48 -47 -48 -47 -24 25
c-13 14 -29 25 -37 25 -20 0 -15 -31 9 -57 l22 -23 -29 -30 -29 -30 -46 45
c-25 25 -51 45 -57 45 -30 0 -21 -26 23 -71 l48 -49 -34 -35 c-19 -19 -37 -35
-41 -35 -13 0 -62 78 -149 235 -214 388 -440 644 -742 842 -72 47 -95 68 -91
81 2 10 -8 29 -26 46 l-31 30 21 22 c14 14 19 29 15 40 -6 15 -10 14 -35 -10
l-28 -27 -47 52 -47 53 -51 -51 -50 -50 -66 20 c-37 11 -69 22 -71 24 -3 2 24
32 59 68 53 54 61 65 46 71 -13 5 -33 -9 -77 -52 l-59 -58 -35 34 c-27 26 -38
31 -47 22 -9 -9 -7 -17 10 -35 30 -32 28 -37 -15 -31 -70 10 -70 11 -10 72 54
54 72 92 45 92 -7 0 -47 -34 -89 -76 -86 -85 -86 -85 -148 -20 l-35 36 39 40
c30 31 36 43 27 52 -9 9 -21 3 -52 -27 -37 -37 -40 -38 -58 -22 -10 9 -22 17
-25 17 -12 0 -8 -35 5 -48 17 -17 -63 -98 -105 -106 -26 -5 -37 -1 -69 31
l-38 37 31 32 c17 18 28 37 25 43 -11 17 -21 14 -56 -15 -30 -26 -31 -26 -51
-8 -17 15 -22 16 -29 4 -6 -10 -3 -21 7 -33 16 -17 12 -22 -57 -92 -41 -41
-82 -75 -90 -75 -9 0 -29 14 -45 30 l-29 30 49 50 c41 42 46 50 31 56 -12 5
-30 -6 -61 -36 -44 -43 -45 -43 -65 -25 -15 14 -23 16 -32 7 -9 -9 -7 -17 7
-32 19 -21 18 -22 -55 -95 l-74 -75 -48 47 c-40 39 -48 44 -54 29 -5 -12 5
-30 35 -60 l42 -43 -66 -61 c-36 -34 -69 -62 -73 -62 -5 0 -23 16 -42 35 l-34
35 28 29 c17 18 26 36 23 45 -9 23 -20 20 -52 -14 l-29 -30 -23 22 c-18 17
-26 19 -35 10 -9 -9 -7 -17 10 -35 l22 -23 -73 -73 c-64 -63 -75 -70 -87 -57
-14 18 -40 21 -40 6 0 -6 6 -19 12 -30 11 -18 6 -26 -45 -78 -31 -32 -57 -63
-57 -69 0 -31 26 -19 86 38 l65 63 26 -27 27 -26 -50 -53 c-27 -29 -66 -73
-87 -97 l-37 -45 -53 52 c-29 29 -58 52 -64 52 -30 0 -20 -25 32 -79 l56 -59
-57 -78 c-31 -44 -67 -98 -81 -122 l-26 -43 -43 42 -44 43 90 91 c49 50 90 96
90 103 0 28 -30 7 -115 -78 -61 -61 -95 -88 -109 -87 -16 1 -20 -3 -19 -19 1
-14 -19 -42 -62 -84 -62 -62 -79 -90 -53 -90 7 0 43 30 80 67 l68 68 47 -47
46 -46 -63 -116 c-85 -156 -84 -156 -106 -134 -17 17 -17 20 19 56 20 21 37
43 37 50 0 23 -37 12 -70 -23 -43 -44 -65 -31 -26 15 41 50 10 72 -34 25 l-24
-25 -42 41 c-39 38 -64 45 -64 16 0 -6 17 -28 37 -49 l37 -38 -27 -27 -27 -27
-33 32 c-18 18 -38 32 -44 32 -27 0 -23 -24 11 -59 l36 -37 -48 -47 -48 -47
-29 30 c-30 32 -55 39 -55 17 0 -8 11 -24 25 -37 31 -29 31 -41 2 -68 l-23
-22 -24 25 c-25 27 -60 34 -60 12 0 -8 11 -24 25 -37 29 -27 31 -38 10 -46
-22 -9 -82 41 -107 89 -65 128 -9 405 146 722 116 235 226 393 405 578 239
248 481 404 853 551 194 77 367 128 523 155 144 25 489 28 641 6z m-307 -569
l22 -23 -38 -7 c-75 -12 -80 -9 -48 24 16 17 32 30 35 30 4 0 16 -11 29 -24z
m-306 -63 c-32 -6 -62 -12 -68 -12 -5 -1 9 17 30 39 l39 40 28 -27 29 -27 -58
-13z m927 -48 c26 -26 31 -38 22 -47 -8 -8 -23 -7 -59 7 -26 10 -50 19 -52 21
-5 5 40 54 49 54 3 0 21 -16 40 -35z m-1191 1 l23 -24 -87 -41 c-48 -23 -90
-41 -94 -41 -3 0 24 29 59 65 35 36 67 65 70 65 4 0 17 -11 29 -24z m1277 -87
c19 -21 19 -21 -9 -8 -15 7 -27 16 -27 21 0 14 16 9 36 -13z m-1710 -150 l29
-30 -70 -64 c-38 -35 -75 -64 -81 -65 -6 0 -21 11 -34 25 l-24 26 69 69 c38
39 72 70 75 70 4 0 19 -14 36 -31z m3193 -533 c12 -32 19 -61 16 -64 -3 -3
-27 15 -52 41 l-47 46 24 26 c13 14 27 22 31 18 3 -5 16 -34 28 -67z m52 -155
c7 -6 39 -129 39 -149 0 -7 -5 -12 -12 -12 -6 0 -19 -7 -28 -15 -14 -13 -22
-8 -80 50 l-64 65 24 25 c13 14 29 25 36 25 6 0 17 7 24 15 12 15 45 12 61 -4z
m-109 -148 c32 -32 58 -62 58 -68 0 -6 -19 -30 -43 -53 l-43 -42 -64 65 -64
65 44 45 c24 25 46 45 49 45 3 0 31 -26 63 -57z m150 -75 c-6 -6 -15 -7 -22
-3 -8 5 -6 13 7 27 16 18 18 19 21 3 2 -9 -1 -22 -6 -27z m-230 -141 c-41 -44
-19 -66 25 -25 l24 22 55 -56 56 -55 -46 -23 c-98 -47 -242 -14 -350 81 l-46
41 42 38 43 39 91 -91 c84 -82 114 -100 114 -65 0 6 -39 51 -87 99 l-87 88 29
30 29 31 65 -65 65 -65 -22 -24z m-3874 97 c-37 -38 -58 -21 -22 17 19 20 31
26 38 19 7 -7 2 -19 -16 -36z m4020 -40 c-28 -29 -50 -44 -58 -39 -8 5 3 23
36 56 33 33 51 46 58 39 7 -7 -5 -25 -36 -56z m-3948 -44 c-41 -52 -113 -117
-140 -125 -18 -6 -31 1 -64 34 l-41 41 47 46 c51 52 86 54 43 2 -28 -33 -30
-43 -14 -54 6 -3 24 6 40 22 23 22 32 25 41 16 7 -7 18 -12 25 -12 16 0 17 36
2 46 -7 4 0 17 17 35 l28 29 23 -21 22 -22 -29 -37z m4030 -14 c-6 -23 -18
-50 -26 -61 -14 -19 -15 -18 -46 13 l-32 32 54 55 c54 55 55 56 58 29 2 -15
-2 -46 -8 -68z m-4260 -101 c18 -19 31 -37 28 -40 -3 -4 -30 -9 -60 -12 -51
-5 -54 -4 -55 18 -2 21 31 69 47 69 3 0 21 -16 40 -35z m3929 -119 c72 -21
163 -20 228 3 l53 18 -5 -111 c-3 -61 -10 -214 -15 -341 -10 -222 -27 -431
-35 -445 -3 -4 -30 1 -61 12 -31 10 -96 22 -145 26 l-88 7 -5 190 c-3 105 -14
282 -25 395 -12 113 -21 226 -21 252 l0 47 33 -18 c17 -11 56 -26 86 -35z
m-3779 -13 c0 -32 -10 -152 -21 -268 -12 -115 -22 -287 -23 -381 l-1 -171 -90
-6 c-50 -3 -116 -14 -147 -24 -52 -18 -58 -18 -63 -4 -15 49 -45 568 -45 779
l0 113 33 -18 c24 -14 55 -18 127 -18 80 0 104 4 155 27 33 14 63 26 68 27 4
0 7 -25 7 -56z m1149 -220 c55 -43 78 -72 115 -148 83 -170 146 -457 171 -781
6 -65 4 -82 -8 -93 -13 -10 -20 -9 -41 4 -24 16 -26 16 -32 1 -4 -9 1 -25 10
-35 15 -16 15 -19 -4 -36 -11 -10 -20 -22 -20 -27 0 -18 31 -20 50 -3 19 17
21 17 40 0 17 -15 20 -31 20 -98 0 -79 0 -80 -19 -63 -16 15 -18 22 -9 42 14
30 3 42 -24 25 -17 -11 -23 -9 -44 10 -19 17 -27 20 -36 11 -9 -9 -6 -18 12
-37 23 -24 23 -25 5 -45 -10 -11 -24 -20 -32 -20 -16 0 -36 -47 -29 -67 4 -10
11 -11 24 -4 15 8 25 4 52 -24 l34 -35 -39 -40 c-24 -24 -46 -38 -59 -37 -16
1 -21 -4 -21 -20 0 -12 -12 -34 -27 -50 -40 -42 -33 -82 22 -138 l44 -45 -51
-52 c-51 -51 -53 -51 -72 -34 -19 18 -51 16 -51 -2 0 -5 9 -17 20 -27 20 -18
20 -18 -6 -46 -42 -44 -11 -69 33 -27 l23 22 50 -49 50 -49 -42 -43 -42 -43
-66 65 c-36 36 -71 65 -78 65 -25 0 -10 -28 48 -85 33 -33 60 -64 60 -71 0 -6
-9 -19 -20 -29 -20 -18 -21 -17 -80 39 -55 53 -80 63 -80 33 0 -7 25 -37 55
-67 l55 -54 -27 -28 c-15 -15 -31 -28 -35 -28 -5 0 -18 20 -29 44 -89 201
-152 846 -153 1546 -1 431 7 519 50 607 49 101 149 129 233 66z m1533 11 c39
-29 70 -79 85 -137 20 -75 35 -505 27 -746 l-7 -204 -26 -23 c-18 -15 -30 -19
-38 -12 -18 15 -35 -1 -29 -27 4 -14 0 -28 -9 -35 -18 -15 -20 -40 -3 -40 6 0
20 7 30 17 17 15 20 15 43 -7 30 -28 31 -41 5 -65 -18 -16 -20 -16 -46 4 -42
33 -64 2 -24 -34 21 -19 20 -19 -30 -70 -52 -53 -64 -81 -31 -72 13 3 31 -7
55 -32 l36 -37 -65 -64 c-36 -35 -65 -70 -65 -77 0 -19 20 -26 36 -12 12 10
21 6 52 -24 30 -29 41 -34 50 -25 9 9 12 5 12 -18 -1 -60 -38 -306 -49 -317
-7 -7 -29 8 -76 55 -36 36 -65 70 -65 75 0 12 53 63 66 63 6 0 23 -13 39 -30
32 -34 43 -37 52 -14 3 9 -7 28 -28 50 l-33 34 32 33 c56 58 33 81 -25 25 -27
-26 -35 -29 -48 -18 -23 19 -44 -3 -28 -29 9 -15 4 -25 -33 -62 -23 -24 -43
-48 -44 -54 0 -5 17 -26 37 -47 l37 -38 -44 -45 -43 -44 -39 35 c-37 33 -58
37 -58 11 0 -6 14 -26 32 -44 l32 -33 -34 -35 -34 -35 -31 30 c-31 31 -65 40
-65 18 0 -7 14 -27 32 -45 l32 -33 -29 -30 c-36 -38 -48 -29 -76 59 -18 59
-22 106 -31 451 -19 722 9 1080 108 1406 60 200 113 294 193 346 38 24 54 29
92 25 25 -2 57 -12 71 -23z m-1987 -193 c-3 -6 -11 -8 -17 -5 -6 4 -5 9 3 15
16 10 23 4 14 -10z m96 -378 c-5 -653 38 -1281 110 -1572 24 -95 24 -94 -54
-111 -65 -14 -103 -13 -172 5 -87 23 -149 61 -220 136 -128 136 -206 332 -251
629 l-15 103 43 44 42 43 23 -22 c18 -17 26 -19 35 -10 9 9 8 16 -5 30 -9 10
-17 23 -17 28 0 4 30 39 66 75 60 60 73 89 42 89 -5 0 -41 -30 -79 -67 l-69
-67 -45 44 c-40 40 -45 49 -45 90 0 36 5 52 23 68 l23 22 49 -50 c27 -28 55
-50 62 -50 31 0 21 26 -28 76 l-53 54 48 49 c28 28 55 47 62 44 9 -3 14 2 14
12 0 9 11 31 25 47 39 46 12 68 -32 26 l-24 -22 -42 42 -41 42 39 40 39 40 26
-25 c14 -14 31 -25 38 -25 20 0 14 32 -10 58 l-23 24 68 64 c37 35 67 66 67
69 0 3 -19 26 -42 51 l-41 45 38 39 c22 22 44 40 50 40 6 0 22 -11 35 -25 27
-29 53 -33 48 -8 -2 10 14 33 39 56 41 38 42 38 67 22 24 -16 26 -16 32 0 4 9
0 23 -10 33 -15 15 -14 18 11 44 15 15 34 28 42 28 14 0 16 -42 12 -397z
m2221 386 c81 -17 156 -58 225 -122 148 -139 225 -337 239 -617 6 -110 5 -127
-10 -139 -14 -12 -19 -11 -34 3 -37 33 -63 12 -32 -26 l19 -25 -24 -23 c-24
-23 -34 -60 -16 -60 5 0 23 12 40 26 26 21 34 24 46 14 8 -7 15 -27 15 -44 0
-38 -39 -63 -70 -43 -25 15 -37 1 -21 -25 12 -19 8 -25 -38 -72 -50 -51 -63
-76 -39 -76 7 0 26 -14 44 -31 l32 -31 -49 -45 -49 -46 -23 21 c-44 41 -66 18
-25 -25 l22 -23 -39 -40 c-35 -36 -40 -38 -55 -25 -34 30 -64 7 -34 -26 17
-19 16 -21 -44 -81 -60 -60 -62 -61 -81 -44 -21 19 -41 14 -41 -9 0 -7 22 -35
50 -62 l50 -49 -40 -39 -40 -39 -60 59 c-47 47 -62 57 -72 47 -10 -10 0 -25
47 -72 l59 -60 -39 -40 c-22 -22 -42 -39 -46 -38 -4 2 -27 22 -51 44 l-45 41
18 139 c52 400 72 807 67 1312 l-4 402 47 0 c27 0 72 -5 101 -11z m-2377 -29
c17 -19 17 -21 -23 -64 -33 -35 -43 -42 -52 -31 -6 7 -8 25 -4 39 7 28 -12 36
-33 15 -7 -7 -13 -7 -17 -1 -8 13 13 29 60 46 51 19 48 19 69 -4z m-151 -67
c8 -9 -74 -93 -91 -93 -23 0 -14 23 24 62 36 37 53 45 67 31z m-120 -121 c3
-5 -13 -26 -34 -47 -46 -45 -50 -41 -15 15 25 39 39 48 49 32z m36 -147 l-54
-55 -38 37 c-21 20 -38 43 -38 51 0 12 3 12 16 1 13 -11 22 -6 62 34 l47 47
30 -30 29 -30 -54 -55z m-125 -125 c-28 -29 -42 -37 -51 -29 -10 8 -9 21 3 62
21 72 22 73 56 38 l31 -31 -39 -40z m-150 -31 c3 -3 -1 -32 -7 -65 -8 -38 -13
-151 -13 -316 l0 -258 -44 -6 c-24 -4 -96 -4 -160 -1 -90 4 -131 10 -184 30
-159 58 -240 159 -240 297 0 147 108 264 293 315 41 11 94 14 202 12 81 -2
150 -5 153 -8z m3760 -4 c163 -42 270 -140 294 -270 5 -25 5 -45 2 -45 -4 0
-26 19 -49 43 -42 43 -43 43 -22 62 40 36 18 67 -24 34 l-27 -21 -25 23 c-19
17 -27 20 -36 11 -9 -9 -6 -18 12 -37 l23 -25 -21 -23 c-12 -13 -22 -29 -22
-35 0 -19 35 -14 55 8 19 21 19 20 77 -37 58 -58 68 -73 46 -73 -6 0 -22 -10
-35 -22 l-23 -22 -85 85 c-47 46 -92 85 -100 87 -28 6 -15 -22 32 -70 l48 -48
-53 -52 -52 -53 -27 27 -26 27 31 36 c57 64 32 92 -28 30 -32 -33 -35 -34 -52
-18 -27 24 -49 2 -25 -25 16 -17 15 -20 -18 -52 l-35 -34 -30 29 c-23 22 -33
26 -42 17 -9 -9 -5 -19 17 -42 l29 -30 -22 -22 -22 -22 -30 29 c-23 22 -33 26
-42 17 -9 -9 -5 -19 17 -42 l29 -30 -24 -25 c-45 -48 -48 -39 -42 163 4 167
-5 324 -24 419 -6 31 -5 32 32 36 102 10 263 6 319 -8z m-3612 -197 l-47 -48
-23 22 c-19 18 -23 30 -19 58 3 19 8 56 11 82 l6 47 60 -56 60 -57 -48 -48z
m3787 -233 l24 -25 -47 -48 c-47 -47 -58 -72 -35 -72 7 0 46 33 87 73 74 72
82 74 29 6 -55 -72 -230 -156 -264 -128 -21 17 -17 32 16 64 l30 29 23 -22
c44 -41 66 -19 25 25 l-22 23 49 50 c27 28 52 50 55 50 4 0 17 -11 30 -25z
m-1270 -20 c0 -8 -4 -15 -9 -15 -13 0 -22 16 -14 24 11 11 23 6 23 -9z m1060
-30 l24 -25 -29 -30 c-34 -36 -42 -37 -72 -8 l-23 22 32 33 c17 18 35 33 38
33 4 0 17 -11 30 -25z m-3610 -80 c0 -6 -11 -22 -24 -34 -21 -19 -24 -20 -30
-6 -3 9 -6 37 -6 63 l0 46 30 -29 c17 -16 30 -34 30 -40z m3541 -53 c5 -13 13
-21 18 -17 5 3 12 1 16 -5 4 -6 -11 -10 -40 -10 -38 0 -50 5 -70 28 l-24 27
22 23 21 22 24 -22 c13 -13 28 -33 33 -46z m-301 38 c0 -5 -4 -10 -10 -10 -5
0 -10 5 -10 10 0 6 5 10 10 10 6 0 10 -4 10 -10z m-2042 -43 c8 3 12 -7 12
-30 0 -51 -34 -57 -77 -15 l-33 32 22 23 c21 23 22 23 42 4 12 -10 27 -16 34
-14z m2016 -6 c15 -16 17 -30 11 -85 -4 -36 -10 -66 -13 -66 -4 0 -28 21 -54
47 l-48 47 37 38 c20 21 40 38 43 38 4 0 15 -9 24 -19z m216 -6 c11 -13 8 -15
-15 -15 -23 0 -26 2 -15 15 7 8 14 15 15 15 1 0 8 -7 15 -15z m-900 -91 c0
-24 -5 -46 -11 -50 -6 -3 -27 10 -47 30 l-36 36 29 30 c27 28 30 29 47 13 12
-11 18 -30 18 -59z m-1327 -171 c-5 -145 -8 -171 -24 -187 -18 -19 -19 -19
-39 -1 -11 10 -19 25 -18 34 2 10 -5 17 -18 19 -11 2 -40 23 -64 47 l-44 45
34 35 34 35 51 -50 c28 -27 56 -50 63 -50 24 0 11 27 -38 75 l-50 49 57 58
c32 32 58 58 60 58 1 0 -1 -75 -4 -167z m1989 83 c24 -18 13 -44 -33 -85 -38
-33 -40 -33 -59 -16 -20 18 -19 19 23 66 23 26 44 47 47 48 3 0 13 -5 22 -13z
m-678 -108 c-4 -40 -9 -75 -11 -77 -2 -3 -20 12 -41 32 l-36 37 39 40 c21 22
43 40 47 40 5 0 5 -33 2 -72z m553 -66 c-49 -51 -26 -74 25 -25 27 26 28 26
48 8 24 -22 24 -27 4 -95 l-16 -53 -75 77 -76 77 39 40 c38 39 38 39 58 19 20
-20 20 -20 -7 -48z m117 34 c-6 -27 -18 -33 -29 -15 -7 10 24 53 32 45 2 -2 1
-15 -3 -30z m-261 -178 c-62 -61 -62 -62 -83 -43 l-21 19 63 63 62 63 21 -20
20 -20 -62 -62z m-1826 -36 c-20 -21 -37 -43 -37 -49 0 -26 22 -22 60 14 23
20 50 37 61 38 17 2 19 -5 19 -65 0 -77 -10 -160 -19 -159 -3 0 -19 16 -35 35
-21 26 -26 38 -18 46 18 18 -6 42 -25 26 -11 -9 -24 -2 -64 38 l-49 48 52 53
c52 53 52 53 72 33 20 -20 20 -20 -17 -58z m1968 17 c33 -34 43 -49 30 -45
-16 5 -33 -7 -75 -49 l-54 -55 -38 37 -38 37 62 63 c34 35 63 63 63 63 0 0 23
-23 50 -51z m4 -126 c-37 -63 -50 -75 -66 -61 -12 9 -6 20 33 59 26 27 50 47
52 44 2 -2 -6 -21 -19 -42z m-169 -18 l34 -35 -39 -40 -39 -40 -38 37 -38 37
37 38 c20 21 40 38 43 38 3 0 21 -16 40 -35z m-530 -140 l-44 -45 -25 25 -25
25 44 45 44 45 25 -25 25 -25 -44 -45z m-1257 -17 c-20 -21 -42 -38 -47 -38
-5 0 -23 12 -38 27 l-28 27 42 43 42 43 33 -32 33 -32 -37 -38z m1707 18 c0
-6 -14 -25 -32 -43 -26 -27 -29 -35 -18 -48 8 -9 8 -15 2 -15 -6 0 -31 21 -56
48 l-45 47 42 42 41 43 33 -32 c18 -18 33 -36 33 -42z m158 62 c9 -9 3 -21
-30 -55 -38 -38 -43 -41 -54 -25 -11 15 -8 22 24 55 40 41 43 42 60 25z m-398
-33 l34 -35 -44 -45 c-49 -50 -76 -59 -67 -22 3 12 11 48 18 80 7 31 16 57 19
57 3 0 21 -16 40 -35z m-167 -97 c-49 -104 -98 -150 -181 -169 -36 -8 -93 4
-129 28 l-24 16 32 33 33 34 53 -51 c49 -46 73 -55 73 -26 0 6 -21 33 -47 59
l-47 48 34 35 34 35 25 -25 25 -25 -28 -29 c-18 -19 -26 -36 -22 -46 7 -19 30
-9 60 24 18 20 20 20 38 4 25 -23 45 -4 28 27 -11 20 -8 27 26 61 21 21 40 37
42 34 2 -2 -9 -32 -25 -67z m-1253 -24 l-20 -47 -25 23 -25 24 42 43 c37 38
43 42 46 24 2 -11 -6 -41 -18 -67z m-153 34 c28 -26 29 -40 3 -63 -20 -18 -21
-18 -52 13 -31 31 -31 32 -13 52 23 25 33 25 62 -2z m1696 -60 c-23 -9 -81
-10 -111 -2 -23 7 -23 7 14 45 l38 39 38 -37 c34 -33 36 -38 21 -45z m170 75
c8 -8 -21 -29 -60 -44 l-28 -10 29 30 c29 30 46 37 59 24z m-1897 -191 c-45
-3 -92 14 -129 46 -17 15 -16 17 15 49 l32 33 63 -62 64 -63 -45 -3z m134 62
c0 -7 -10 -20 -22 -28 -21 -15 -24 -14 -47 9 l-25 24 24 26 24 25 23 -22 c13
-12 23 -27 23 -34z"/>
<path d="M2860 4741 c0 -15 6 -21 23 -21 51 0 324 -62 439 -100 366 -120 612
-303 858 -637 72 -98 91 -115 105 -93 12 19 -165 242 -289 366 -139 138 -259
223 -436 308 -182 88 -441 164 -647 191 -49 6 -53 5 -53 -14z"/>
</g>
</svg>
