<?xml version="1.0" standalone="no"?>
<!DOCTYPE svg PUBLIC "-//W3C//DTD SVG 20010904//EN"
 "http://www.w3.org/TR/2001/REC-SVG-20010904/DTD/svg10.dtd">
<svg version="1.0" xmlns="http://www.w3.org/2000/svg"
 width="512.000000pt" height="512.000000pt" viewBox="0 0 512.000000 512.000000"
 preserveAspectRatio="xMidYMid meet">

<g transform="translate(0.000000,512.000000) scale(0.100000,-0.100000)"
fill="#000000" stroke="none">
<path d="M3880 5114 c-207 -38 -280 -61 -406 -128 -341 -181 -565 -529 -590
-916 -12 -176 32 -343 157 -595 148 -302 417 -686 750 -1076 136 -159 186
-185 275 -143 83 40 529 607 730 928 265 425 355 707 310 978 -78 476 -417
834 -881 933 -77 17 -294 28 -345 19z m345 -349 c286 -84 497 -317 559 -617 9
-42 16 -103 16 -135 0 -200 -188 -565 -528 -1023 -108 -146 -264 -340 -272
-340 -18 0 -331 411 -457 600 -159 238 -288 489 -324 630 -51 198 18 451 171
633 204 243 531 342 835 252z"/>
<path d="M3893 4465 c-238 -52 -403 -296 -364 -538 42 -259 288 -439 544 -398
259 42 439 288 398 544 -16 101 -62 189 -135 262 -73 73 -142 111 -233 130
-82 18 -129 18 -210 0z m171 -319 c18 -8 45 -29 60 -48 52 -69 47 -147 -14
-208 -66 -66 -151 -67 -219 -2 -128 122 9 326 173 258z"/>
<path d="M909 3512 c-448 -180 -828 -335 -843 -345 -15 -10 -36 -37 -47 -60
-18 -41 -19 -91 -19 -1512 l0 -1470 23 -40 c24 -44 92 -85 139 -85 15 0 381
141 813 314 l785 314 785 -314 c432 -173 798 -314 815 -314 37 0 1653 644
1697 676 67 50 64 1 61 1106 -3 989 -3 997 -24 1024 -39 53 -71 69 -134 69
-63 0 -95 -16 -134 -69 -21 -27 -21 -38 -26 -964 l-5 -936 -620 -248 c-341
-137 -628 -251 -637 -254 -17 -5 -18 45 -20 865 -3 861 -3 870 -24 897 -39 53
-71 69 -134 69 -63 0 -95 -16 -134 -69 -21 -27 -21 -36 -24 -897 -2 -820 -3
-870 -20 -865 -9 3 -296 117 -637 254 l-620 248 -3 1267 c-1 697 0 1267 3
1267 3 0 175 -68 382 -151 347 -139 382 -151 429 -147 28 3 62 13 77 24 34 24
67 90 67 133 0 41 -32 103 -64 124 -50 33 -1026 417 -1059 417 -18 -1 -385
-142 -848 -328z m689 -1339 l-3 -1267 -620 -248 c-341 -137 -628 -251 -638
-254 -16 -5 -17 58 -15 1262 l3 1268 630 253 c347 138 633 252 638 253 4 0 6
-570 5 -1267z"/>
</g>
</svg>
